<svg width="1107" height="1046" viewBox="0 0 1107 1046" fill="none" xmlns="http://www.w3.org/2000/svg">
<path d="M1046.73 550.872C989.251 464.082 898.283 404.203 804.557 357.597C787.354 349.082 770.003 340.908 752.534 332.932C691.177 305.075 638.441 261.389 599.852 206.45L599.084 205.467C557.572 146.007 525.439 79.2333 473.967 27.3359C437.363 -9.09049 392.371 -36.1219 342.907 -51.4056C293.442 -66.6892 241.005 -69.762 190.157 -60.3564C88.9614 -39.921 0.660979 36.3266 -30.4046 133.955C-67.6982 250.896 -25.7782 384.519 -74.1963 497.224C-133.998 636.488 -328.759 732.122 -362.117 879.937C-378.504 952.826 -352.393 1069.29 -300.708 1124.06C-249.023 1178.84 -174.62 1209.25 -99.5703 1215.5C14.9264 1225.03 139.387 1117.45 251.105 1090.69C371.151 1061.78 495.071 1051.62 618.405 1060.57C701.904 1066.69 786.831 1081.6 868.286 1061.73C971.379 1036.63 1057.04 954.079 1090.14 853.978C1123.23 753.877 1105.21 638.991 1046.73 550.872Z" fill="#033E96" fill-opacity="0.02"/>
</svg>
