<svg width="14" height="14" viewBox="0 0 14 14" fill="none" xmlns="http://www.w3.org/2000/svg">
<path d="M6.58056 1.02941C6.70628 0.64246 7.25372 0.64246 7.37944 1.02941L8.67733 5.02388C8.73355 5.19693 8.89481 5.31409 9.07677 5.31409H13.2768C13.6837 5.31409 13.8528 5.83473 13.5237 6.07388L10.1258 8.5426C9.97857 8.64955 9.91697 8.83912 9.9732 9.01217L11.2711 13.0066C11.3968 13.3936 10.9539 13.7154 10.6248 13.4762L7.22687 11.0075C7.07966 10.9005 6.88033 10.9005 6.73313 11.0075L3.33523 13.4762C3.00607 13.7154 2.56319 13.3936 2.68892 13.0066L3.9868 9.01217C4.04303 8.83912 3.98143 8.64955 3.83423 8.5426L0.436327 6.07388C0.107167 5.83473 0.276332 5.31409 0.683196 5.31409H4.88323C5.06519 5.31409 5.22645 5.19693 5.28267 5.02388L6.58056 1.02941Z" fill="#7F7F7F"/>
</svg>
