<svg width="66" height="65" viewBox="0 0 66 65" fill="none" xmlns="http://www.w3.org/2000/svg">
<rect width="66" height="65" rx="5" fill="#367CFF"/>
<path d="M32 29.1489L29.7278 36.1412H22.375L28.3236 40.463L26.05 47.4546L32 43.1342L37.9486 47.4546L35.675 40.463L41.6236 36.1412H34.2708L32 29.1489ZM33.9866 39.7329L35.213 43.5101L32 41.1749L28.7842 43.5101L30.0134 39.7329L26.799 37.3977H30.7722L32 33.6205L33.2278 37.3977H37.1996L33.9866 39.7329Z" fill="white"/>
<path d="M40.8595 28.1633V22.0747C40.8595 21.8199 40.7202 21.6057 40.5228 21.4727L47.3996 11H34.2151L32.0003 14.3222L29.7855 11H16.5996L23.4757 21.472C23.3742 21.5368 23.2904 21.6258 23.2318 21.731C23.1731 21.8362 23.1415 21.9543 23.1397 22.0747V28.1633C20.003 30.7309 17.9996 34.6306 17.9996 39C17.9996 46.7315 24.2681 53 31.9996 53H32.0003C32.477 53 32.9481 52.9755 33.4122 52.9286C40.4801 52.2209 45.9996 46.2555 45.9996 39C45.9996 34.6306 43.9962 30.7309 40.8595 28.1633ZM38.1778 11.7H42.6074L36.4299 20.9673L34.2151 17.6451L38.1778 11.7ZM38.6447 24.2895L39.3258 23.2689C39.3622 23.3564 39.3832 23.4516 39.3832 23.5517V26.505C39.3816 26.6894 39.3068 26.8657 39.1753 26.995C37.0753 25.7364 34.626 25 31.9996 25C29.4708 25.0005 26.9899 25.6905 24.8239 26.9957C24.6924 26.8661 24.6176 26.6896 24.616 26.505V23.5517C24.616 23.4516 24.637 23.3557 24.6734 23.2689L25.3545 24.2902H38.6447V24.2895ZM21.3918 11.7H25.8214L33.7482 23.5895H29.3186L21.3918 11.7ZM31.9996 50.9C25.428 50.9 20.0996 45.5723 20.0996 39C20.0996 32.4277 25.428 27.1 31.9996 27.1C38.5712 27.1 43.8996 32.4277 43.8996 39C43.8996 45.5723 38.5712 50.9 31.9996 50.9Z" fill="white"/>
</svg>
