<svg width="66" height="66" viewBox="0 0 66 66" fill="none" xmlns="http://www.w3.org/2000/svg">
<rect width="66" height="66" rx="5" fill="#EF184B"/>
<path d="M19.736 44.7508V51.7845L22.5242 50.0868L31.2881 44.7508H39.9802C42.0102 44.7508 43.661 43.0754 43.661 41.0154V26.0738C43.661 24.0137 42.0102 22.3384 39.9802 22.3384H17.8956C15.8657 22.3384 14.2148 24.0137 14.2148 26.0738V41.0154C14.2148 43.0754 15.8657 44.7508 17.8956 44.7508H19.736ZM17.8956 26.0738H39.9802V41.0154H30.2685L23.4168 45.1878V41.0154H17.8956V26.0738Z" fill="#F2F7FF"/>
<path d="M47.0877 15.2307H25.003C22.9731 15.2307 21.3223 16.9005 21.3223 18.9538H43.4069C45.4368 18.9538 47.0877 20.6236 47.0877 22.6769V37.5692C49.1176 37.5692 50.7684 35.8994 50.7684 33.8461V18.9538C50.7684 16.9005 49.1176 15.2307 47.0877 15.2307Z" fill="#F2F7FF"/>
</svg>
