<svg width="426" height="235" viewBox="0 0 426 235" fill="none" xmlns="http://www.w3.org/2000/svg">
<g filter="url(#filter0_d_2777_5716)">
<g clip-path="url(#clip0_2777_5716)">
<rect x="72.334" y="60.2842" width="281.137" height="90.485" rx="3.3075" fill="white"/>
<path d="M129.391 97.4754C129.274 97.4754 129.174 97.4402 129.092 97.3696C129.021 97.2873 128.986 97.1873 128.986 97.0697V92.9067L124.734 85.7096C124.723 85.6743 124.711 85.639 124.699 85.6037C124.687 85.5684 124.682 85.5273 124.682 85.4802C124.682 85.3862 124.717 85.3038 124.787 85.2333C124.858 85.1627 124.94 85.1274 125.034 85.1274H125.952C126.057 85.1274 126.152 85.1568 126.234 85.2156C126.316 85.2627 126.375 85.3332 126.41 85.4273L129.85 91.1427L133.29 85.4273C133.349 85.3332 133.413 85.2627 133.484 85.2156C133.566 85.1568 133.66 85.1274 133.766 85.1274H134.666C134.772 85.1274 134.86 85.1627 134.93 85.2333C135.001 85.3038 135.036 85.3862 135.036 85.4802C135.036 85.5273 135.03 85.5684 135.019 85.6037C135.007 85.639 134.989 85.6743 134.966 85.7096L130.732 92.9067V97.0697C130.732 97.1873 130.691 97.2873 130.609 97.3696C130.538 97.4402 130.438 97.4754 130.309 97.4754H129.391ZM139.049 97.6518C137.838 97.6518 136.873 97.2814 136.156 96.5405C135.439 95.7879 135.045 94.7648 134.974 93.4712C134.962 93.3183 134.956 93.1242 134.956 92.889C134.956 92.6421 134.962 92.4422 134.974 92.2893C135.021 91.4543 135.215 90.7252 135.556 90.1019C135.897 89.4669 136.362 88.9788 136.95 88.6378C137.55 88.2968 138.249 88.1262 139.049 88.1262C139.943 88.1262 140.689 88.3144 141.289 88.6907C141.901 89.067 142.365 89.6021 142.683 90.296C143 90.9898 143.159 91.8012 143.159 92.7303V93.0302C143.159 93.1595 143.118 93.2595 143.036 93.33C142.965 93.4006 142.871 93.4359 142.753 93.4359H136.65C136.65 93.4476 136.65 93.4712 136.65 93.5064C136.65 93.5417 136.65 93.5711 136.65 93.5946C136.673 94.0768 136.779 94.5296 136.967 94.9529C137.156 95.3645 137.426 95.6997 137.779 95.9584C138.132 96.2171 138.555 96.3465 139.049 96.3465C139.472 96.3465 139.825 96.2818 140.107 96.1524C140.39 96.0231 140.619 95.882 140.795 95.7291C140.972 95.5644 141.089 95.441 141.148 95.3586C141.254 95.2058 141.336 95.1176 141.395 95.094C141.454 95.0588 141.548 95.0411 141.677 95.0411H142.524C142.642 95.0411 142.736 95.0764 142.806 95.147C142.889 95.2058 142.924 95.294 142.912 95.4116C142.9 95.588 142.806 95.8055 142.63 96.0642C142.453 96.3112 142.201 96.5582 141.871 96.8051C141.542 97.0521 141.142 97.2579 140.672 97.4225C140.201 97.5754 139.66 97.6518 139.049 97.6518ZM136.65 92.2187H141.483V92.1658C141.483 91.6366 141.383 91.1662 141.183 90.7546C140.995 90.343 140.719 90.0196 140.354 89.7844C139.99 89.5374 139.555 89.414 139.049 89.414C138.543 89.414 138.108 89.5374 137.744 89.7844C137.391 90.0196 137.12 90.343 136.932 90.7546C136.744 91.1662 136.65 91.6366 136.65 92.1658V92.2187ZM147.826 97.6518C147.238 97.6518 146.703 97.5342 146.221 97.299C145.739 97.0638 145.351 96.7463 145.057 96.3465C144.763 95.9466 144.616 95.4939 144.616 94.9882C144.616 94.1768 144.945 93.53 145.603 93.0478C146.262 92.5656 147.12 92.2481 148.179 92.0952L150.807 91.7248V91.2132C150.807 90.6488 150.643 90.2078 150.313 89.8902C149.996 89.5727 149.472 89.414 148.743 89.414C148.214 89.414 147.785 89.5198 147.456 89.7315C147.138 89.9432 146.915 90.2136 146.785 90.5429C146.715 90.7193 146.591 90.8075 146.415 90.8075H145.621C145.492 90.8075 145.392 90.7722 145.321 90.7017C145.262 90.6194 145.233 90.5253 145.233 90.4194C145.233 90.243 145.298 90.0255 145.427 89.7668C145.568 89.508 145.78 89.2552 146.062 89.0082C146.344 88.7613 146.703 88.5555 147.138 88.3908C147.585 88.2144 148.126 88.1262 148.761 88.1262C149.467 88.1262 150.06 88.2203 150.543 88.4085C151.025 88.5849 151.401 88.826 151.672 89.1317C151.954 89.4375 152.154 89.7844 152.271 90.1725C152.401 90.5606 152.465 90.9545 152.465 91.3544V97.0697C152.465 97.1873 152.424 97.2873 152.342 97.3696C152.271 97.4402 152.177 97.4754 152.06 97.4754H151.248C151.119 97.4754 151.019 97.4402 150.948 97.3696C150.878 97.2873 150.842 97.1873 150.842 97.0697V96.3112C150.69 96.5229 150.484 96.7346 150.225 96.9462C149.966 97.1462 149.643 97.3167 149.255 97.4578C148.867 97.5872 148.391 97.6518 147.826 97.6518ZM148.196 96.3288C148.679 96.3288 149.12 96.2289 149.519 96.029C149.919 95.8173 150.231 95.4939 150.454 95.0588C150.69 94.6236 150.807 94.0768 150.807 93.4182V92.9243L148.761 93.2242C147.926 93.3418 147.297 93.5417 146.873 93.824C146.45 94.0944 146.238 94.4414 146.238 94.8647C146.238 95.194 146.333 95.4704 146.521 95.6938C146.721 95.9055 146.968 96.0642 147.262 96.1701C147.567 96.2759 147.879 96.3288 148.196 96.3288ZM155.407 97.4754C155.289 97.4754 155.189 97.4402 155.107 97.3696C155.037 97.2873 155.001 97.1873 155.001 97.0697V88.726C155.001 88.6084 155.037 88.5084 155.107 88.4261C155.189 88.3438 155.289 88.3026 155.407 88.3026H156.218C156.336 88.3026 156.436 88.3438 156.518 88.4261C156.601 88.5084 156.642 88.6084 156.642 88.726V89.5022C156.877 89.1023 157.2 88.8024 157.612 88.6025C158.024 88.4026 158.517 88.3026 159.094 88.3026H159.799C159.917 88.3026 160.011 88.3438 160.082 88.4261C160.152 88.4967 160.187 88.5908 160.187 88.7084V89.4316C160.187 89.5492 160.152 89.6433 160.082 89.7138C160.011 89.7844 159.917 89.8197 159.799 89.8197H158.741C158.106 89.8197 157.606 90.0078 157.242 90.3842C156.877 90.7487 156.695 91.2485 156.695 91.8836V97.0697C156.695 97.1873 156.654 97.2873 156.571 97.3696C156.489 97.4402 156.389 97.4754 156.271 97.4754H155.407ZM164.878 97.6518C164.219 97.6518 163.655 97.5695 163.184 97.4049C162.714 97.2402 162.332 97.0403 162.038 96.8051C161.744 96.5699 161.52 96.3347 161.367 96.0995C161.226 95.8643 161.15 95.6762 161.138 95.535C161.126 95.4057 161.167 95.3057 161.261 95.2352C161.355 95.1646 161.45 95.1293 161.544 95.1293H162.32C162.39 95.1293 162.443 95.1411 162.479 95.1646C162.526 95.1764 162.584 95.2234 162.655 95.3057C162.808 95.4704 162.978 95.635 163.167 95.7996C163.355 95.9643 163.584 96.0995 163.854 96.2054C164.137 96.3112 164.484 96.3641 164.895 96.3641C165.495 96.3641 165.989 96.2524 166.377 96.029C166.765 95.7938 166.959 95.4527 166.959 95.0058C166.959 94.7118 166.877 94.4766 166.712 94.3002C166.559 94.1238 166.277 93.9651 165.865 93.824C165.466 93.6828 164.913 93.5358 164.207 93.383C163.502 93.2183 162.943 93.0184 162.531 92.7832C162.12 92.5362 161.826 92.2481 161.649 91.9188C161.473 91.5778 161.385 91.1956 161.385 90.7722C161.385 90.3371 161.514 89.9196 161.773 89.5198C162.032 89.1082 162.408 88.773 162.902 88.5143C163.408 88.2556 164.037 88.1262 164.789 88.1262C165.401 88.1262 165.924 88.2027 166.359 88.3556C166.794 88.5084 167.153 88.7025 167.435 88.9377C167.718 89.1611 167.929 89.3846 168.07 89.608C168.212 89.8314 168.288 90.0196 168.3 90.1725C168.312 90.2901 168.276 90.39 168.194 90.4724C168.112 90.5429 168.018 90.5782 167.912 90.5782H167.171C167.088 90.5782 167.018 90.5606 166.959 90.5253C166.912 90.49 166.865 90.4488 166.818 90.4018C166.7 90.2489 166.559 90.096 166.395 89.9432C166.242 89.7903 166.036 89.6668 165.777 89.5727C165.53 89.4669 165.201 89.414 164.789 89.414C164.201 89.414 163.76 89.5374 163.466 89.7844C163.172 90.0314 163.025 90.343 163.025 90.7193C163.025 90.9428 163.09 91.1427 163.219 91.3191C163.349 91.4955 163.596 91.6542 163.96 91.7954C164.325 91.9365 164.866 92.0894 165.583 92.254C166.359 92.4069 166.971 92.6127 167.418 92.8714C167.865 93.1301 168.182 93.43 168.37 93.771C168.558 94.1121 168.653 94.506 168.653 94.9529C168.653 95.4468 168.506 95.8996 168.212 96.3112C167.929 96.7228 167.506 97.0521 166.941 97.299C166.389 97.5342 165.701 97.6518 164.878 97.6518ZM178.776 97.6518C177.882 97.6518 177.135 97.4813 176.536 97.1403C175.936 96.7992 175.477 96.3288 175.16 95.7291C174.842 95.1176 174.666 94.4237 174.63 93.6476C174.619 93.4476 174.613 93.1948 174.613 92.889C174.613 92.5715 174.619 92.3187 174.63 92.1305C174.666 91.3426 174.842 90.6488 175.16 90.049C175.489 89.4492 175.953 88.9788 176.553 88.6378C177.153 88.2968 177.894 88.1262 178.776 88.1262C179.658 88.1262 180.399 88.2968 180.998 88.6378C181.598 88.9788 182.057 89.4492 182.374 90.049C182.704 90.6488 182.886 91.3426 182.921 92.1305C182.933 92.3187 182.939 92.5715 182.939 92.889C182.939 93.1948 182.933 93.4476 182.921 93.6476C182.886 94.4237 182.71 95.1176 182.392 95.7291C182.075 96.3288 181.616 96.7992 181.016 97.1403C180.416 97.4813 179.67 97.6518 178.776 97.6518ZM178.776 96.2936C179.505 96.2936 180.087 96.0642 180.522 95.6056C180.957 95.1352 181.193 94.4531 181.228 93.5594C181.24 93.383 181.245 93.1595 181.245 92.889C181.245 92.6186 181.24 92.3951 181.228 92.2187C181.193 91.325 180.957 90.6488 180.522 90.1901C180.087 89.7197 179.505 89.4845 178.776 89.4845C178.047 89.4845 177.459 89.7197 177.012 90.1901C176.577 90.6488 176.347 91.325 176.324 92.2187C176.312 92.3951 176.306 92.6186 176.306 92.889C176.306 93.1595 176.312 93.383 176.324 93.5594C176.347 94.4531 176.577 95.1352 177.012 95.6056C177.459 96.0642 178.047 96.2936 178.776 96.2936ZM186.367 97.4754C186.25 97.4754 186.15 97.4402 186.067 97.3696C185.997 97.2873 185.962 97.1873 185.962 97.0697V89.7138H184.462C184.345 89.7138 184.245 89.6786 184.162 89.608C184.092 89.5257 184.057 89.4257 184.057 89.3081V88.7084C184.057 88.5908 184.092 88.4967 184.162 88.4261C184.245 88.3438 184.345 88.3026 184.462 88.3026H185.962V87.4206C185.962 86.8209 186.062 86.2976 186.262 85.8507C186.461 85.392 186.779 85.0392 187.214 84.7923C187.661 84.5453 188.255 84.4218 188.996 84.4218H190.054C190.172 84.4218 190.266 84.463 190.336 84.5453C190.407 84.6159 190.442 84.71 190.442 84.8276V85.4273C190.442 85.5449 190.407 85.6449 190.336 85.7272C190.266 85.7978 190.172 85.833 190.054 85.833H189.031C188.478 85.833 188.102 85.98 187.902 86.274C187.702 86.5563 187.602 86.9679 187.602 87.5088V88.3026H189.878C189.995 88.3026 190.089 88.3438 190.16 88.4261C190.231 88.4967 190.266 88.5908 190.266 88.7084V89.3081C190.266 89.4257 190.231 89.5257 190.16 89.608C190.089 89.6786 189.995 89.7138 189.878 89.7138H187.602V97.0697C187.602 97.1873 187.561 97.2873 187.479 97.3696C187.408 97.4402 187.314 97.4754 187.196 97.4754H186.367ZM196.394 97.4754C196.265 97.4754 196.165 97.4402 196.094 97.3696C196.024 97.2873 195.989 97.1873 195.989 97.0697V85.5508C195.989 85.4214 196.024 85.3215 196.094 85.2509C196.165 85.1686 196.265 85.1274 196.394 85.1274H203.68C203.809 85.1274 203.909 85.1686 203.98 85.2509C204.05 85.3215 204.085 85.4214 204.085 85.5508V86.2211C204.085 86.3505 204.05 86.4504 203.98 86.521C203.909 86.5916 203.809 86.6268 203.68 86.6268H197.682V90.49H203.292C203.421 90.49 203.521 90.5312 203.591 90.6135C203.662 90.684 203.697 90.784 203.697 90.9134V91.566C203.697 91.6836 203.662 91.7836 203.591 91.8659C203.521 91.9365 203.421 91.9718 203.292 91.9718H197.682V95.976H203.821C203.95 95.976 204.05 96.0113 204.121 96.0819C204.191 96.1524 204.226 96.2524 204.226 96.3818V97.0697C204.226 97.1873 204.191 97.2873 204.121 97.3696C204.05 97.4402 203.95 97.4754 203.821 97.4754H196.394ZM206.034 97.4754C205.94 97.4754 205.851 97.4402 205.769 97.3696C205.698 97.299 205.663 97.2108 205.663 97.105C205.663 97.0697 205.669 97.0286 205.681 96.9815C205.704 96.9227 205.74 96.858 205.787 96.7875L208.856 92.7832L205.981 88.9906C205.934 88.92 205.898 88.8612 205.875 88.8142C205.863 88.7672 205.857 88.7201 205.857 88.6731C205.857 88.5672 205.892 88.479 205.963 88.4085C206.034 88.3379 206.122 88.3026 206.228 88.3026H207.127C207.257 88.3026 207.351 88.3379 207.41 88.4085C207.48 88.4673 207.539 88.5261 207.586 88.5849L209.932 91.6366L212.278 88.6025C212.325 88.5437 212.378 88.479 212.437 88.4085C212.507 88.3379 212.607 88.3026 212.737 88.3026H213.601C213.707 88.3026 213.795 88.3379 213.866 88.4085C213.936 88.479 213.972 88.5672 213.972 88.6731C213.972 88.7201 213.96 88.7672 213.936 88.8142C213.925 88.8612 213.895 88.92 213.848 88.9906L210.938 92.8185L214.007 96.7875C214.054 96.858 214.083 96.9168 214.095 96.9639C214.119 97.0109 214.13 97.058 214.13 97.105C214.13 97.2108 214.095 97.299 214.025 97.3696C213.954 97.4402 213.866 97.4754 213.76 97.4754H212.825C212.707 97.4754 212.613 97.446 212.543 97.3872C212.472 97.3284 212.413 97.2696 212.366 97.2108L209.879 93.9827L207.392 97.2108C207.345 97.2579 207.286 97.3167 207.215 97.3872C207.157 97.446 207.063 97.4754 206.933 97.4754H206.034ZM216.389 100.827C216.272 100.827 216.172 100.786 216.09 100.704C216.019 100.633 215.984 100.539 215.984 100.421V88.7084C215.984 88.5908 216.019 88.4967 216.09 88.4261C216.172 88.3438 216.272 88.3026 216.389 88.3026H217.201C217.318 88.3026 217.413 88.3438 217.483 88.4261C217.565 88.4967 217.607 88.5908 217.607 88.7084V89.4845C217.889 89.0964 218.265 88.773 218.736 88.5143C219.206 88.2556 219.794 88.1262 220.5 88.1262C221.158 88.1262 221.717 88.238 222.175 88.4614C222.646 88.6848 223.028 88.9906 223.322 89.3787C223.628 89.7668 223.857 90.2078 224.01 90.7017C224.163 91.1956 224.245 91.7248 224.257 92.2893C224.269 92.4774 224.274 92.6774 224.274 92.889C224.274 93.1007 224.269 93.3006 224.257 93.4888C224.245 94.0415 224.163 94.5707 224.01 95.0764C223.857 95.5703 223.628 96.0113 223.322 96.3994C223.028 96.7757 222.646 97.0815 222.175 97.3167C221.717 97.5401 221.158 97.6518 220.5 97.6518C219.817 97.6518 219.241 97.5284 218.771 97.2814C218.312 97.0227 217.936 96.7052 217.642 96.3288V100.421C217.642 100.539 217.607 100.633 217.536 100.704C217.465 100.786 217.365 100.827 217.236 100.827H216.389ZM220.129 96.223C220.741 96.223 221.217 96.0936 221.558 95.8349C221.911 95.5644 222.164 95.2175 222.316 94.7942C222.469 94.359 222.558 93.8945 222.581 93.4006C222.593 93.0596 222.593 92.7185 222.581 92.3775C222.558 91.8836 222.469 91.4249 222.316 91.0016C222.164 90.5664 221.911 90.2195 221.558 89.9608C221.217 89.6903 220.741 89.5551 220.129 89.5551C219.553 89.5551 219.082 89.6903 218.718 89.9608C218.365 90.2313 218.1 90.5782 217.924 91.0016C217.759 91.4132 217.665 91.8365 217.642 92.2716C217.63 92.4598 217.624 92.6832 217.624 92.942C217.624 93.2007 217.63 93.43 217.642 93.6299C217.654 94.0415 217.748 94.4472 217.924 94.8471C218.112 95.2469 218.389 95.5762 218.753 95.8349C219.118 96.0936 219.576 96.223 220.129 96.223ZM230.126 97.6518C228.914 97.6518 227.95 97.2814 227.233 96.5405C226.515 95.7879 226.121 94.7648 226.051 93.4712C226.039 93.3183 226.033 93.1242 226.033 92.889C226.033 92.6421 226.039 92.4422 226.051 92.2893C226.098 91.4543 226.292 90.7252 226.633 90.1019C226.974 89.4669 227.439 88.9788 228.027 88.6378C228.626 88.2968 229.326 88.1262 230.126 88.1262C231.019 88.1262 231.766 88.3144 232.366 88.6907C232.978 89.067 233.442 89.6021 233.76 90.296C234.077 90.9898 234.236 91.8012 234.236 92.7303V93.0302C234.236 93.1595 234.195 93.2595 234.112 93.33C234.042 93.4006 233.948 93.4359 233.83 93.4359H227.727C227.727 93.4476 227.727 93.4712 227.727 93.5064C227.727 93.5417 227.727 93.5711 227.727 93.5946C227.75 94.0768 227.856 94.5296 228.044 94.9529C228.232 95.3645 228.503 95.6997 228.856 95.9584C229.208 96.2171 229.632 96.3465 230.126 96.3465C230.549 96.3465 230.902 96.2818 231.184 96.1524C231.466 96.0231 231.696 95.882 231.872 95.7291C232.048 95.5644 232.166 95.441 232.225 95.3586C232.331 95.2058 232.413 95.1176 232.472 95.094C232.531 95.0588 232.625 95.0411 232.754 95.0411H233.601C233.718 95.0411 233.812 95.0764 233.883 95.147C233.965 95.2058 234.001 95.294 233.989 95.4116C233.977 95.588 233.883 95.8055 233.707 96.0642C233.53 96.3112 233.277 96.5582 232.948 96.8051C232.619 97.0521 232.219 97.2579 231.749 97.4225C231.278 97.5754 230.737 97.6518 230.126 97.6518ZM227.727 92.2187H232.56V92.1658C232.56 91.6366 232.46 91.1662 232.26 90.7546C232.072 90.343 231.796 90.0196 231.431 89.7844C231.067 89.5374 230.631 89.414 230.126 89.414C229.62 89.414 229.185 89.5374 228.82 89.7844C228.468 90.0196 228.197 90.343 228.009 90.7546C227.821 91.1662 227.727 91.6366 227.727 92.1658V92.2187ZM236.751 97.4754C236.633 97.4754 236.533 97.4402 236.451 97.3696C236.38 97.2873 236.345 97.1873 236.345 97.0697V88.726C236.345 88.6084 236.38 88.5084 236.451 88.4261C236.533 88.3438 236.633 88.3026 236.751 88.3026H237.562C237.68 88.3026 237.78 88.3438 237.862 88.4261C237.944 88.5084 237.986 88.6084 237.986 88.726V89.5022C238.221 89.1023 238.544 88.8024 238.956 88.6025C239.367 88.4026 239.861 88.3026 240.438 88.3026H241.143C241.261 88.3026 241.355 88.3438 241.425 88.4261C241.496 88.4967 241.531 88.5908 241.531 88.7084V89.4316C241.531 89.5492 241.496 89.6433 241.425 89.7138C241.355 89.7844 241.261 89.8197 241.143 89.8197H240.085C239.45 89.8197 238.95 90.0078 238.585 90.3842C238.221 90.7487 238.039 91.2485 238.039 91.8836V97.0697C238.039 97.1873 237.997 97.2873 237.915 97.3696C237.833 97.4402 237.733 97.4754 237.615 97.4754H236.751ZM243.452 97.4754C243.334 97.4754 243.234 97.4402 243.152 97.3696C243.081 97.2873 243.046 97.1873 243.046 97.0697V88.7084C243.046 88.5908 243.081 88.4967 243.152 88.4261C243.234 88.3438 243.334 88.3026 243.452 88.3026H244.299C244.416 88.3026 244.51 88.3438 244.581 88.4261C244.651 88.4967 244.687 88.5908 244.687 88.7084V97.0697C244.687 97.1873 244.651 97.2873 244.581 97.3696C244.51 97.4402 244.416 97.4754 244.299 97.4754H243.452ZM243.311 86.5916C243.193 86.5916 243.093 86.5563 243.011 86.4857C242.94 86.4034 242.905 86.3034 242.905 86.1858V85.2333C242.905 85.1157 242.94 85.0216 243.011 84.951C243.093 84.8687 243.193 84.8276 243.311 84.8276H244.422C244.54 84.8276 244.634 84.8687 244.704 84.951C244.787 85.0216 244.828 85.1157 244.828 85.2333V86.1858C244.828 86.3034 244.787 86.4034 244.704 86.4857C244.634 86.5563 244.54 86.5916 244.422 86.5916H243.311ZM251.004 97.6518C249.793 97.6518 248.829 97.2814 248.111 96.5405C247.394 95.7879 247 94.7648 246.929 93.4712C246.918 93.3183 246.912 93.1242 246.912 92.889C246.912 92.6421 246.918 92.4422 246.929 92.2893C246.977 91.4543 247.171 90.7252 247.512 90.1019C247.853 89.4669 248.317 88.9788 248.905 88.6378C249.505 88.2968 250.205 88.1262 251.004 88.1262C251.898 88.1262 252.645 88.3144 253.245 88.6907C253.856 89.067 254.321 89.6021 254.638 90.296C254.956 90.9898 255.114 91.8012 255.114 92.7303V93.0302C255.114 93.1595 255.073 93.2595 254.991 93.33C254.92 93.4006 254.826 93.4359 254.709 93.4359H248.605C248.605 93.4476 248.605 93.4712 248.605 93.5064C248.605 93.5417 248.605 93.5711 248.605 93.5946C248.629 94.0768 248.735 94.5296 248.923 94.9529C249.111 95.3645 249.381 95.6997 249.734 95.9584C250.087 96.2171 250.51 96.3465 251.004 96.3465C251.428 96.3465 251.78 96.2818 252.063 96.1524C252.345 96.0231 252.574 95.882 252.751 95.7291C252.927 95.5644 253.045 95.441 253.103 95.3586C253.209 95.2058 253.292 95.1176 253.35 95.094C253.409 95.0588 253.503 95.0411 253.633 95.0411H254.479C254.597 95.0411 254.691 95.0764 254.762 95.147C254.844 95.2058 254.879 95.294 254.867 95.4116C254.856 95.588 254.762 95.8055 254.585 96.0642C254.409 96.3112 254.156 96.5582 253.827 96.8051C253.497 97.0521 253.098 97.2579 252.627 97.4225C252.157 97.5754 251.616 97.6518 251.004 97.6518ZM248.605 92.2187H253.439V92.1658C253.439 91.6366 253.339 91.1662 253.139 90.7546C252.951 90.343 252.674 90.0196 252.31 89.7844C251.945 89.5374 251.51 89.414 251.004 89.414C250.499 89.414 250.064 89.5374 249.699 89.7844C249.346 90.0196 249.076 90.343 248.888 90.7546C248.699 91.1662 248.605 91.6366 248.605 92.1658V92.2187ZM257.629 97.4754C257.512 97.4754 257.412 97.4402 257.329 97.3696C257.259 97.2873 257.224 97.1873 257.224 97.0697V88.7084C257.224 88.5908 257.259 88.4967 257.329 88.4261C257.412 88.3438 257.512 88.3026 257.629 88.3026H258.458C258.576 88.3026 258.67 88.3438 258.741 88.4261C258.823 88.4967 258.864 88.5908 258.864 88.7084V89.4845C259.17 89.0847 259.552 88.7613 260.011 88.5143C260.481 88.2556 261.081 88.1262 261.81 88.1262C262.574 88.1262 263.221 88.2968 263.75 88.6378C264.291 88.9671 264.697 89.4316 264.968 90.0314C265.238 90.6194 265.373 91.3073 265.373 92.0952V97.0697C265.373 97.1873 265.338 97.2873 265.267 97.3696C265.197 97.4402 265.103 97.4754 264.985 97.4754H264.103C263.986 97.4754 263.886 97.4402 263.803 97.3696C263.733 97.2873 263.698 97.1873 263.698 97.0697V92.1834C263.698 91.3602 263.498 90.7193 263.098 90.2607C262.698 89.7903 262.11 89.5551 261.334 89.5551C260.605 89.5551 260.017 89.7903 259.57 90.2607C259.135 90.7193 258.917 91.3602 258.917 92.1834V97.0697C258.917 97.1873 258.876 97.2873 258.794 97.3696C258.723 97.4402 258.629 97.4754 258.511 97.4754H257.629ZM271.626 97.6518C270.791 97.6518 270.068 97.4931 269.456 97.1756C268.856 96.8463 268.392 96.3818 268.062 95.782C267.733 95.1705 267.557 94.4414 267.533 93.5946C267.522 93.4182 267.516 93.183 267.516 92.889C267.516 92.595 267.522 92.3598 267.533 92.1834C267.557 91.3367 267.733 90.6135 268.062 90.0137C268.392 89.4022 268.856 88.9377 269.456 88.6202C270.068 88.2909 270.791 88.1262 271.626 88.1262C272.308 88.1262 272.89 88.2203 273.372 88.4085C273.866 88.5966 274.272 88.8377 274.589 89.1317C274.907 89.4257 275.142 89.7432 275.295 90.0843C275.46 90.4253 275.548 90.7487 275.559 91.0545C275.571 91.1721 275.536 91.2662 275.454 91.3367C275.371 91.4073 275.271 91.4426 275.154 91.4426H274.307C274.189 91.4426 274.101 91.419 274.042 91.372C273.984 91.3132 273.925 91.2191 273.866 91.0898C273.654 90.5135 273.366 90.1078 273.002 89.8726C272.637 89.6374 272.184 89.5198 271.643 89.5198C270.938 89.5198 270.362 89.7374 269.915 90.1725C269.48 90.6076 269.244 91.3073 269.209 92.2716C269.197 92.695 269.197 93.1066 269.209 93.5064C269.244 94.4825 269.48 95.1881 269.915 95.6232C270.362 96.0466 270.938 96.2583 271.643 96.2583C272.184 96.2583 272.637 96.1407 273.002 95.9055C273.366 95.6703 273.654 95.2646 273.866 94.6883C273.925 94.559 273.984 94.4708 274.042 94.4237C274.101 94.3649 274.189 94.3355 274.307 94.3355H275.154C275.271 94.3355 275.371 94.3708 275.454 94.4414C275.536 94.5119 275.571 94.606 275.559 94.7236C275.548 94.9706 275.495 95.2234 275.401 95.4821C275.307 95.7408 275.154 96.0054 274.942 96.2759C274.742 96.5346 274.489 96.7698 274.184 96.9815C273.878 97.1814 273.507 97.3461 273.072 97.4754C272.649 97.593 272.167 97.6518 271.626 97.6518ZM281.306 97.6518C280.095 97.6518 279.13 97.2814 278.413 96.5405C277.696 95.7879 277.302 94.7648 277.231 93.4712C277.219 93.3183 277.213 93.1242 277.213 92.889C277.213 92.6421 277.219 92.4422 277.231 92.2893C277.278 91.4543 277.472 90.7252 277.813 90.1019C278.154 89.4669 278.619 88.9788 279.207 88.6378C279.806 88.2968 280.506 88.1262 281.306 88.1262C282.2 88.1262 282.946 88.3144 283.546 88.6907C284.158 89.067 284.622 89.6021 284.94 90.296C285.257 90.9898 285.416 91.8012 285.416 92.7303V93.0302C285.416 93.1595 285.375 93.2595 285.292 93.33C285.222 93.4006 285.128 93.4359 285.01 93.4359H278.907C278.907 93.4476 278.907 93.4712 278.907 93.5064C278.907 93.5417 278.907 93.5711 278.907 93.5946C278.93 94.0768 279.036 94.5296 279.224 94.9529C279.412 95.3645 279.683 95.6997 280.036 95.9584C280.389 96.2171 280.812 96.3465 281.306 96.3465C281.729 96.3465 282.082 96.2818 282.364 96.1524C282.646 96.0231 282.876 95.882 283.052 95.7291C283.229 95.5644 283.346 95.441 283.405 95.3586C283.511 95.2058 283.593 95.1176 283.652 95.094C283.711 95.0588 283.805 95.0411 283.934 95.0411H284.781C284.899 95.0411 284.993 95.0764 285.063 95.147C285.145 95.2058 285.181 95.294 285.169 95.4116C285.157 95.588 285.063 95.8055 284.887 96.0642C284.71 96.3112 284.458 96.5582 284.128 96.8051C283.799 97.0521 283.399 97.2579 282.929 97.4225C282.458 97.5754 281.917 97.6518 281.306 97.6518ZM278.907 92.2187H283.74V92.1658C283.74 91.6366 283.64 91.1662 283.44 90.7546C283.252 90.343 282.976 90.0196 282.611 89.7844C282.247 89.5374 281.812 89.414 281.306 89.414C280.8 89.414 280.365 89.5374 280 89.7844C279.648 90.0196 279.377 90.343 279.189 90.7546C279.001 91.1662 278.907 91.6366 278.907 92.1658V92.2187ZM294.936 88.8495C294.818 88.8495 294.73 88.8142 294.671 88.7436C294.624 88.6613 294.595 88.5672 294.583 88.4614L294.283 85.3568C294.26 85.2274 294.283 85.1274 294.354 85.0569C294.424 84.9863 294.519 84.951 294.636 84.951H295.783C295.9 84.951 295.994 84.9863 296.065 85.0569C296.136 85.1274 296.165 85.2274 296.153 85.3568L295.836 88.4614C295.824 88.5672 295.789 88.6613 295.73 88.7436C295.683 88.8142 295.6 88.8495 295.483 88.8495H294.936ZM292.184 88.8495C292.067 88.8495 291.978 88.8142 291.92 88.7436C291.873 88.6613 291.843 88.5672 291.831 88.4614L291.532 85.3568C291.52 85.2274 291.543 85.1274 291.602 85.0569C291.673 84.9863 291.767 84.951 291.884 84.951H293.031C293.149 84.951 293.243 84.9863 293.313 85.0569C293.384 85.1274 293.413 85.2274 293.401 85.3568L293.101 88.4614C293.09 88.5672 293.054 88.6613 292.996 88.7436C292.937 88.8142 292.849 88.8495 292.731 88.8495H292.184ZM125.863 124.475C125.746 124.475 125.646 124.44 125.564 124.37C125.493 124.287 125.458 124.187 125.458 124.07V115.708C125.458 115.591 125.493 115.497 125.564 115.426C125.646 115.344 125.746 115.303 125.863 115.303H126.71C126.828 115.303 126.922 115.344 126.992 115.426C127.063 115.497 127.098 115.591 127.098 115.708V124.07C127.098 124.187 127.063 124.287 126.992 124.37C126.922 124.44 126.828 124.475 126.71 124.475H125.863ZM125.722 113.592C125.605 113.592 125.505 113.556 125.422 113.486C125.352 113.403 125.317 113.303 125.317 113.186V112.233C125.317 112.116 125.352 112.022 125.422 111.951C125.505 111.869 125.605 111.828 125.722 111.828H126.834C126.951 111.828 127.045 111.869 127.116 111.951C127.198 112.022 127.239 112.116 127.239 112.233V113.186C127.239 113.303 127.198 113.403 127.116 113.486C127.045 113.556 126.951 113.592 126.834 113.592H125.722ZM130.308 124.475C130.19 124.475 130.09 124.44 130.008 124.37C129.937 124.287 129.902 124.187 129.902 124.07V115.708C129.902 115.591 129.937 115.497 130.008 115.426C130.09 115.344 130.19 115.303 130.308 115.303H131.137C131.255 115.303 131.349 115.344 131.419 115.426C131.502 115.497 131.543 115.591 131.543 115.708V116.485C131.848 116.085 132.231 115.761 132.689 115.514C133.16 115.256 133.759 115.126 134.489 115.126C135.253 115.126 135.9 115.297 136.429 115.638C136.97 115.967 137.376 116.432 137.646 117.031C137.917 117.619 138.052 118.307 138.052 119.095V124.07C138.052 124.187 138.017 124.287 137.946 124.37C137.875 124.44 137.781 124.475 137.664 124.475H136.782C136.664 124.475 136.564 124.44 136.482 124.37C136.411 124.287 136.376 124.187 136.376 124.07V119.183C136.376 118.36 136.176 117.719 135.776 117.261C135.376 116.79 134.788 116.555 134.012 116.555C133.283 116.555 132.695 116.79 132.248 117.261C131.813 117.719 131.596 118.36 131.596 119.183V124.07C131.596 124.187 131.554 124.287 131.472 124.37C131.402 124.44 131.307 124.475 131.19 124.475H130.308ZM145.559 124.475C145.429 124.475 145.329 124.44 145.259 124.37C145.188 124.287 145.153 124.187 145.153 124.07V112.551C145.153 112.421 145.188 112.321 145.259 112.251C145.329 112.169 145.429 112.127 145.559 112.127H152.844C152.973 112.127 153.073 112.169 153.144 112.251C153.215 112.321 153.25 112.421 153.25 112.551V113.221C153.25 113.35 153.215 113.45 153.144 113.521C153.073 113.592 152.973 113.627 152.844 113.627H146.846V117.49H152.456C152.585 117.49 152.685 117.531 152.756 117.613C152.826 117.684 152.862 117.784 152.862 117.913V118.566C152.862 118.684 152.826 118.784 152.756 118.866C152.685 118.936 152.585 118.972 152.456 118.972H146.846V122.976H152.985C153.115 122.976 153.215 123.011 153.285 123.082C153.356 123.152 153.391 123.252 153.391 123.382V124.07C153.391 124.187 153.356 124.287 153.285 124.37C153.215 124.44 153.115 124.475 152.985 124.475H145.559ZM158.87 124.652C158.223 124.652 157.664 124.54 157.194 124.317C156.723 124.081 156.335 123.77 156.03 123.382C155.736 122.982 155.512 122.529 155.359 122.023C155.218 121.518 155.136 120.983 155.112 120.418C155.101 120.23 155.095 120.054 155.095 119.889C155.095 119.724 155.101 119.548 155.112 119.36C155.136 118.807 155.218 118.278 155.359 117.772C155.512 117.267 155.736 116.814 156.03 116.414C156.335 116.014 156.723 115.702 157.194 115.479C157.664 115.244 158.223 115.126 158.87 115.126C159.563 115.126 160.14 115.25 160.598 115.497C161.057 115.744 161.433 116.049 161.727 116.414V112.357C161.727 112.239 161.763 112.145 161.833 112.075C161.915 111.992 162.015 111.951 162.133 111.951H162.98C163.097 111.951 163.191 111.992 163.262 112.075C163.344 112.145 163.385 112.239 163.385 112.357V124.07C163.385 124.187 163.344 124.287 163.262 124.37C163.191 124.44 163.097 124.475 162.98 124.475H162.186C162.057 124.475 161.957 124.44 161.886 124.37C161.816 124.287 161.78 124.187 161.78 124.07V123.329C161.486 123.705 161.104 124.023 160.634 124.281C160.163 124.528 159.575 124.652 158.87 124.652ZM159.24 123.223C159.828 123.223 160.298 123.088 160.651 122.817C161.004 122.547 161.269 122.206 161.445 121.794C161.621 121.371 161.716 120.942 161.727 120.506C161.739 120.318 161.745 120.095 161.745 119.836C161.745 119.566 161.739 119.336 161.727 119.148C161.716 118.737 161.616 118.331 161.427 117.931C161.251 117.531 160.981 117.202 160.616 116.943C160.263 116.684 159.805 116.555 159.24 116.555C158.64 116.555 158.164 116.69 157.811 116.961C157.458 117.22 157.206 117.566 157.053 118.002C156.9 118.425 156.812 118.884 156.788 119.377C156.776 119.719 156.776 120.06 156.788 120.401C156.812 120.895 156.9 121.359 157.053 121.794C157.206 122.218 157.458 122.564 157.811 122.835C158.164 123.094 158.64 123.223 159.24 123.223ZM169.431 124.652C168.679 124.652 168.038 124.487 167.508 124.158C166.991 123.817 166.597 123.346 166.327 122.747C166.056 122.147 165.921 121.459 165.921 120.683V115.708C165.921 115.591 165.956 115.497 166.027 115.426C166.109 115.344 166.209 115.303 166.327 115.303H167.209C167.326 115.303 167.42 115.344 167.491 115.426C167.573 115.497 167.614 115.591 167.614 115.708V120.595C167.614 122.347 168.379 123.223 169.907 123.223C170.637 123.223 171.219 122.994 171.654 122.535C172.101 122.065 172.324 121.418 172.324 120.595V115.708C172.324 115.591 172.359 115.497 172.43 115.426C172.512 115.344 172.612 115.303 172.73 115.303H173.594C173.724 115.303 173.824 115.344 173.894 115.426C173.965 115.497 174 115.591 174 115.708V124.07C174 124.187 173.965 124.287 173.894 124.37C173.824 124.44 173.724 124.475 173.594 124.475H172.783C172.665 124.475 172.565 124.44 172.483 124.37C172.412 124.287 172.377 124.187 172.377 124.07V123.294C172.06 123.705 171.671 124.034 171.213 124.281C170.766 124.528 170.172 124.652 169.431 124.652ZM180.201 124.475C179.543 124.475 179.008 124.352 178.596 124.105C178.185 123.846 177.885 123.488 177.697 123.029C177.508 122.559 177.414 122.006 177.414 121.371V116.714H176.038C175.921 116.714 175.821 116.679 175.739 116.608C175.668 116.526 175.633 116.426 175.633 116.308V115.708C175.633 115.591 175.668 115.497 175.739 115.426C175.821 115.344 175.921 115.303 176.038 115.303H177.414V112.357C177.414 112.239 177.45 112.145 177.52 112.075C177.603 111.992 177.702 111.951 177.82 111.951H178.649C178.767 111.951 178.861 111.992 178.931 112.075C179.014 112.145 179.055 112.239 179.055 112.357V115.303H181.242C181.36 115.303 181.454 115.344 181.524 115.426C181.607 115.497 181.648 115.591 181.648 115.708V116.308C181.648 116.426 181.607 116.526 181.524 116.608C181.454 116.679 181.36 116.714 181.242 116.714H179.055V121.247C179.055 121.8 179.149 122.235 179.337 122.553C179.525 122.87 179.86 123.029 180.343 123.029H181.419C181.536 123.029 181.63 123.07 181.701 123.152C181.783 123.223 181.824 123.317 181.824 123.435V124.07C181.824 124.187 181.783 124.287 181.701 124.37C181.63 124.44 181.536 124.475 181.419 124.475H180.201ZM187.163 124.652C185.951 124.652 184.987 124.281 184.27 123.541C183.552 122.788 183.158 121.765 183.088 120.471C183.076 120.318 183.07 120.124 183.07 119.889C183.07 119.642 183.076 119.442 183.088 119.289C183.135 118.454 183.329 117.725 183.67 117.102C184.011 116.467 184.476 115.979 185.064 115.638C185.663 115.297 186.363 115.126 187.163 115.126C188.056 115.126 188.803 115.314 189.403 115.691C190.014 116.067 190.479 116.602 190.797 117.296C191.114 117.99 191.273 118.801 191.273 119.73V120.03C191.273 120.16 191.232 120.259 191.149 120.33C191.079 120.401 190.985 120.436 190.867 120.436H184.764C184.764 120.448 184.764 120.471 184.764 120.506C184.764 120.542 184.764 120.571 184.764 120.595C184.787 121.077 184.893 121.53 185.081 121.953C185.269 122.365 185.54 122.7 185.893 122.958C186.245 123.217 186.669 123.346 187.163 123.346C187.586 123.346 187.939 123.282 188.221 123.152C188.503 123.023 188.733 122.882 188.909 122.729C189.085 122.564 189.203 122.441 189.262 122.359C189.368 122.206 189.45 122.118 189.509 122.094C189.568 122.059 189.662 122.041 189.791 122.041H190.638C190.755 122.041 190.849 122.076 190.92 122.147C191.002 122.206 191.038 122.294 191.026 122.412C191.014 122.588 190.92 122.806 190.744 123.064C190.567 123.311 190.314 123.558 189.985 123.805C189.656 124.052 189.256 124.258 188.786 124.423C188.315 124.575 187.774 124.652 187.163 124.652ZM184.764 119.219H189.597V119.166C189.597 118.637 189.497 118.166 189.297 117.755C189.109 117.343 188.833 117.02 188.468 116.784C188.103 116.537 187.668 116.414 187.163 116.414C186.657 116.414 186.222 116.537 185.857 116.784C185.505 117.02 185.234 117.343 185.046 117.755C184.858 118.166 184.764 118.637 184.764 119.166V119.219ZM197.086 124.652C196.251 124.652 195.528 124.493 194.917 124.176C194.317 123.846 193.852 123.382 193.523 122.782C193.194 122.17 193.017 121.441 192.994 120.595C192.982 120.418 192.976 120.183 192.976 119.889C192.976 119.595 192.982 119.36 192.994 119.183C193.017 118.337 193.194 117.613 193.523 117.014C193.852 116.402 194.317 115.938 194.917 115.62C195.528 115.291 196.251 115.126 197.086 115.126C197.768 115.126 198.351 115.22 198.833 115.408C199.327 115.597 199.732 115.838 200.05 116.132C200.367 116.426 200.603 116.743 200.756 117.084C200.92 117.425 201.008 117.749 201.02 118.054C201.032 118.172 200.997 118.266 200.914 118.337C200.832 118.407 200.732 118.443 200.614 118.443H199.768C199.65 118.443 199.562 118.419 199.503 118.372C199.444 118.313 199.385 118.219 199.327 118.09C199.115 117.514 198.827 117.108 198.462 116.873C198.098 116.637 197.645 116.52 197.104 116.52C196.398 116.52 195.822 116.737 195.375 117.172C194.94 117.608 194.705 118.307 194.67 119.272C194.658 119.695 194.658 120.107 194.67 120.506C194.705 121.483 194.94 122.188 195.375 122.623C195.822 123.047 196.398 123.258 197.104 123.258C197.645 123.258 198.098 123.141 198.462 122.905C198.827 122.67 199.115 122.265 199.327 121.688C199.385 121.559 199.444 121.471 199.503 121.424C199.562 121.365 199.65 121.336 199.768 121.336H200.614C200.732 121.336 200.832 121.371 200.914 121.441C200.997 121.512 201.032 121.606 201.02 121.724C201.008 121.971 200.955 122.223 200.861 122.482C200.767 122.741 200.614 123.005 200.403 123.276C200.203 123.535 199.95 123.77 199.644 123.982C199.338 124.181 198.968 124.346 198.533 124.475C198.11 124.593 197.627 124.652 197.086 124.652ZM203.538 124.475C203.421 124.475 203.321 124.44 203.239 124.37C203.168 124.287 203.133 124.187 203.133 124.07V112.357C203.133 112.239 203.168 112.145 203.239 112.075C203.321 111.992 203.421 111.951 203.538 111.951H204.42C204.55 111.951 204.65 111.992 204.72 112.075C204.791 112.145 204.826 112.239 204.826 112.357V116.467C205.144 116.067 205.532 115.744 205.99 115.497C206.449 115.25 207.031 115.126 207.737 115.126C208.501 115.126 209.148 115.297 209.677 115.638C210.218 115.967 210.624 116.432 210.894 117.031C211.177 117.619 211.318 118.307 211.318 119.095V124.07C211.318 124.187 211.282 124.287 211.212 124.37C211.141 124.44 211.041 124.475 210.912 124.475H210.03C209.912 124.475 209.812 124.44 209.73 124.37C209.659 124.287 209.624 124.187 209.624 124.07V119.183C209.624 118.36 209.424 117.719 209.024 117.261C208.625 116.79 208.037 116.555 207.26 116.555C206.531 116.555 205.943 116.79 205.496 117.261C205.05 117.719 204.826 118.36 204.826 119.183V124.07C204.826 124.187 204.791 124.287 204.72 124.37C204.65 124.44 204.55 124.475 204.42 124.475H203.538ZM222.387 124.652C221.363 124.652 220.505 124.499 219.811 124.193C219.117 123.876 218.582 123.47 218.206 122.976C217.841 122.47 217.647 121.935 217.624 121.371C217.624 121.277 217.659 121.194 217.73 121.124C217.812 121.042 217.906 121 218.012 121H218.912C219.053 121 219.158 121.036 219.229 121.106C219.3 121.177 219.347 121.259 219.37 121.353C219.429 121.635 219.57 121.918 219.794 122.2C220.029 122.47 220.352 122.7 220.764 122.888C221.187 123.064 221.728 123.152 222.387 123.152C223.398 123.152 224.139 122.976 224.609 122.623C225.091 122.259 225.332 121.777 225.332 121.177C225.332 120.765 225.203 120.436 224.944 120.189C224.697 119.93 224.315 119.701 223.798 119.501C223.28 119.301 222.61 119.083 221.787 118.848C220.928 118.601 220.217 118.331 219.652 118.037C219.088 117.743 218.665 117.378 218.382 116.943C218.112 116.508 217.977 115.955 217.977 115.285C217.977 114.65 218.147 114.085 218.488 113.592C218.829 113.086 219.317 112.686 219.952 112.392C220.599 112.098 221.381 111.951 222.298 111.951C223.028 111.951 223.663 112.051 224.204 112.251C224.756 112.439 225.215 112.698 225.579 113.027C225.944 113.345 226.22 113.692 226.409 114.068C226.597 114.432 226.697 114.791 226.708 115.144C226.708 115.226 226.679 115.309 226.62 115.391C226.561 115.461 226.467 115.497 226.338 115.497H225.403C225.321 115.497 225.233 115.473 225.138 115.426C225.056 115.379 224.991 115.291 224.944 115.162C224.874 114.679 224.603 114.274 224.133 113.944C223.663 113.615 223.051 113.45 222.298 113.45C221.534 113.45 220.911 113.597 220.429 113.891C219.958 114.185 219.723 114.644 219.723 115.267C219.723 115.667 219.835 116.002 220.058 116.273C220.282 116.532 220.634 116.761 221.117 116.961C221.599 117.161 222.228 117.372 223.004 117.596C223.945 117.855 224.715 118.131 225.315 118.425C225.915 118.707 226.356 119.066 226.638 119.501C226.932 119.924 227.079 120.471 227.079 121.141C227.079 121.882 226.885 122.517 226.497 123.047C226.109 123.564 225.562 123.964 224.856 124.246C224.162 124.517 223.339 124.652 222.387 124.652ZM232.919 124.652C232.025 124.652 231.278 124.481 230.679 124.14C230.079 123.799 229.62 123.329 229.303 122.729C228.985 122.118 228.809 121.424 228.774 120.648C228.762 120.448 228.756 120.195 228.756 119.889C228.756 119.572 228.762 119.319 228.774 119.131C228.809 118.343 228.985 117.649 229.303 117.049C229.632 116.449 230.097 115.979 230.696 115.638C231.296 115.297 232.037 115.126 232.919 115.126C233.801 115.126 234.542 115.297 235.142 115.638C235.741 115.979 236.2 116.449 236.517 117.049C236.847 117.649 237.029 118.343 237.064 119.131C237.076 119.319 237.082 119.572 237.082 119.889C237.082 120.195 237.076 120.448 237.064 120.648C237.029 121.424 236.853 122.118 236.535 122.729C236.218 123.329 235.759 123.799 235.159 124.14C234.559 124.481 233.813 124.652 232.919 124.652ZM232.919 123.294C233.648 123.294 234.23 123.064 234.665 122.606C235.1 122.135 235.336 121.453 235.371 120.559C235.383 120.383 235.389 120.16 235.389 119.889C235.389 119.619 235.383 119.395 235.371 119.219C235.336 118.325 235.1 117.649 234.665 117.19C234.23 116.72 233.648 116.485 232.919 116.485C232.19 116.485 231.602 116.72 231.155 117.19C230.72 117.649 230.49 118.325 230.467 119.219C230.455 119.395 230.449 119.619 230.449 119.889C230.449 120.16 230.455 120.383 230.467 120.559C230.49 121.453 230.72 122.135 231.155 122.606C231.602 123.064 232.19 123.294 232.919 123.294ZM239.714 124.475C239.597 124.475 239.497 124.44 239.414 124.37C239.344 124.287 239.308 124.187 239.308 124.07V112.357C239.308 112.239 239.344 112.145 239.414 112.075C239.497 111.992 239.597 111.951 239.714 111.951H240.543C240.673 111.951 240.773 111.992 240.843 112.075C240.914 112.145 240.949 112.239 240.949 112.357V124.07C240.949 124.187 240.914 124.287 240.843 124.37C240.773 124.44 240.673 124.475 240.543 124.475H239.714ZM247.002 124.652C246.25 124.652 245.609 124.487 245.08 124.158C244.562 123.817 244.168 123.346 243.898 122.747C243.627 122.147 243.492 121.459 243.492 120.683V115.708C243.492 115.591 243.527 115.497 243.598 115.426C243.68 115.344 243.78 115.303 243.898 115.303H244.78C244.897 115.303 244.991 115.344 245.062 115.426C245.144 115.497 245.185 115.591 245.185 115.708V120.595C245.185 122.347 245.95 123.223 247.479 123.223C248.208 123.223 248.79 122.994 249.225 122.535C249.672 122.065 249.895 121.418 249.895 120.595V115.708C249.895 115.591 249.931 115.497 250.001 115.426C250.083 115.344 250.183 115.303 250.301 115.303H251.165C251.295 115.303 251.395 115.344 251.465 115.426C251.536 115.497 251.571 115.591 251.571 115.708V124.07C251.571 124.187 251.536 124.287 251.465 124.37C251.395 124.44 251.295 124.475 251.165 124.475H250.354C250.236 124.475 250.136 124.44 250.054 124.37C249.984 124.287 249.948 124.187 249.948 124.07V123.294C249.631 123.705 249.243 124.034 248.784 124.281C248.337 124.528 247.743 124.652 247.002 124.652ZM257.773 124.475C257.114 124.475 256.579 124.352 256.167 124.105C255.756 123.846 255.456 123.488 255.268 123.029C255.08 122.559 254.986 122.006 254.986 121.371V116.714H253.61C253.492 116.714 253.392 116.679 253.31 116.608C253.239 116.526 253.204 116.426 253.204 116.308V115.708C253.204 115.591 253.239 115.497 253.31 115.426C253.392 115.344 253.492 115.303 253.61 115.303H254.986V112.357C254.986 112.239 255.021 112.145 255.091 112.075C255.174 111.992 255.274 111.951 255.391 111.951H256.22C256.338 111.951 256.432 111.992 256.503 112.075C256.585 112.145 256.626 112.239 256.626 112.357V115.303H258.813C258.931 115.303 259.025 115.344 259.096 115.426C259.178 115.497 259.219 115.591 259.219 115.708V116.308C259.219 116.426 259.178 116.526 259.096 116.608C259.025 116.679 258.931 116.714 258.813 116.714H256.626V121.247C256.626 121.8 256.72 122.235 256.908 122.553C257.096 122.87 257.432 123.029 257.914 123.029H258.99C259.107 123.029 259.202 123.07 259.272 123.152C259.354 123.223 259.396 123.317 259.396 123.435V124.07C259.396 124.187 259.354 124.287 259.272 124.37C259.202 124.44 259.107 124.475 258.99 124.475H257.773ZM261.488 124.475C261.371 124.475 261.271 124.44 261.188 124.37C261.118 124.287 261.082 124.187 261.082 124.07V115.708C261.082 115.591 261.118 115.497 261.188 115.426C261.271 115.344 261.371 115.303 261.488 115.303H262.335C262.452 115.303 262.547 115.344 262.617 115.426C262.688 115.497 262.723 115.591 262.723 115.708V124.07C262.723 124.187 262.688 124.287 262.617 124.37C262.547 124.44 262.452 124.475 262.335 124.475H261.488ZM261.347 113.592C261.229 113.592 261.129 113.556 261.047 113.486C260.977 113.403 260.941 113.303 260.941 113.186V112.233C260.941 112.116 260.977 112.022 261.047 111.951C261.129 111.869 261.229 111.828 261.347 111.828H262.458C262.576 111.828 262.67 111.869 262.741 111.951C262.823 112.022 262.864 112.116 262.864 112.233V113.186C262.864 113.303 262.823 113.403 262.741 113.486C262.67 113.556 262.576 113.592 262.458 113.592H261.347ZM269.146 124.652C268.253 124.652 267.506 124.481 266.906 124.14C266.306 123.799 265.848 123.329 265.53 122.729C265.213 122.118 265.036 121.424 265.001 120.648C264.989 120.448 264.983 120.195 264.983 119.889C264.983 119.572 264.989 119.319 265.001 119.131C265.036 118.343 265.213 117.649 265.53 117.049C265.859 116.449 266.324 115.979 266.924 115.638C267.523 115.297 268.264 115.126 269.146 115.126C270.028 115.126 270.769 115.297 271.369 115.638C271.969 115.979 272.427 116.449 272.745 117.049C273.074 117.649 273.256 118.343 273.292 119.131C273.304 119.319 273.309 119.572 273.309 119.889C273.309 120.195 273.304 120.448 273.292 120.648C273.256 121.424 273.08 122.118 272.763 122.729C272.445 123.329 271.986 123.799 271.387 124.14C270.787 124.481 270.04 124.652 269.146 124.652ZM269.146 123.294C269.875 123.294 270.458 123.064 270.893 122.606C271.328 122.135 271.563 121.453 271.598 120.559C271.61 120.383 271.616 120.16 271.616 119.889C271.616 119.619 271.61 119.395 271.598 119.219C271.563 118.325 271.328 117.649 270.893 117.19C270.458 116.72 269.875 116.485 269.146 116.485C268.417 116.485 267.829 116.72 267.382 117.19C266.947 117.649 266.718 118.325 266.694 119.219C266.683 119.395 266.677 119.619 266.677 119.889C266.677 120.16 266.683 120.383 266.694 120.559C266.718 121.453 266.947 122.135 267.382 122.606C267.829 123.064 268.417 123.294 269.146 123.294ZM275.924 124.475C275.806 124.475 275.706 124.44 275.624 124.37C275.554 124.287 275.518 124.187 275.518 124.07V115.708C275.518 115.591 275.554 115.497 275.624 115.426C275.706 115.344 275.806 115.303 275.924 115.303H276.753C276.871 115.303 276.965 115.344 277.035 115.426C277.118 115.497 277.159 115.591 277.159 115.708V116.485C277.465 116.085 277.847 115.761 278.305 115.514C278.776 115.256 279.376 115.126 280.105 115.126C280.869 115.126 281.516 115.297 282.045 115.638C282.586 115.967 282.992 116.432 283.262 117.031C283.533 117.619 283.668 118.307 283.668 119.095V124.07C283.668 124.187 283.633 124.287 283.562 124.37C283.492 124.44 283.397 124.475 283.28 124.475H282.398C282.28 124.475 282.18 124.44 282.098 124.37C282.027 124.287 281.992 124.187 281.992 124.07V119.183C281.992 118.36 281.792 117.719 281.392 117.261C280.993 116.79 280.405 116.555 279.628 116.555C278.899 116.555 278.311 116.79 277.864 117.261C277.429 117.719 277.212 118.36 277.212 119.183V124.07C277.212 124.187 277.171 124.287 277.088 124.37C277.018 124.44 276.924 124.475 276.806 124.475H275.924ZM289.391 124.652C288.733 124.652 288.168 124.57 287.698 124.405C287.227 124.24 286.845 124.04 286.551 123.805C286.257 123.57 286.034 123.335 285.881 123.1C285.74 122.864 285.663 122.676 285.651 122.535C285.64 122.406 285.681 122.306 285.775 122.235C285.869 122.165 285.963 122.129 286.057 122.129H286.833C286.904 122.129 286.957 122.141 286.992 122.165C287.039 122.176 287.098 122.223 287.169 122.306C287.321 122.47 287.492 122.635 287.68 122.8C287.868 122.964 288.098 123.1 288.368 123.205C288.65 123.311 288.997 123.364 289.409 123.364C290.009 123.364 290.502 123.252 290.891 123.029C291.279 122.794 291.473 122.453 291.473 122.006C291.473 121.712 291.39 121.477 291.226 121.3C291.073 121.124 290.791 120.965 290.379 120.824C289.979 120.683 289.426 120.536 288.721 120.383C288.015 120.218 287.457 120.018 287.045 119.783C286.633 119.536 286.339 119.248 286.163 118.919C285.987 118.578 285.898 118.196 285.898 117.772C285.898 117.337 286.028 116.92 286.287 116.52C286.545 116.108 286.922 115.773 287.415 115.514C287.921 115.256 288.55 115.126 289.303 115.126C289.914 115.126 290.438 115.203 290.873 115.356C291.308 115.508 291.667 115.702 291.949 115.938C292.231 116.161 292.443 116.385 292.584 116.608C292.725 116.831 292.802 117.02 292.813 117.172C292.825 117.29 292.79 117.39 292.707 117.472C292.625 117.543 292.531 117.578 292.425 117.578H291.684C291.602 117.578 291.531 117.561 291.473 117.525C291.426 117.49 291.379 117.449 291.332 117.402C291.214 117.249 291.073 117.096 290.908 116.943C290.755 116.79 290.55 116.667 290.291 116.573C290.044 116.467 289.715 116.414 289.303 116.414C288.715 116.414 288.274 116.537 287.98 116.784C287.686 117.031 287.539 117.343 287.539 117.719C287.539 117.943 287.604 118.143 287.733 118.319C287.862 118.495 288.109 118.654 288.474 118.795C288.838 118.936 289.379 119.089 290.097 119.254C290.873 119.407 291.484 119.613 291.931 119.871C292.378 120.13 292.696 120.43 292.884 120.771C293.072 121.112 293.166 121.506 293.166 121.953C293.166 122.447 293.019 122.9 292.725 123.311C292.443 123.723 292.02 124.052 291.455 124.299C290.902 124.534 290.214 124.652 289.391 124.652Z" fill="#411640"/>
<rect x="45.3047" y="36.4082" width="60.6375" height="60.6375" rx="30.3187" fill="#033E96"/>
<path d="M79.2839 81.3307C78.9311 81.3307 78.661 81.2369 78.4735 81.0495C78.2861 80.8621 78.1924 80.603 78.1924 80.2723C78.1924 79.9305 78.2861 79.6714 78.4735 79.495C78.661 79.3186 78.9311 79.2304 79.2839 79.2304H80.9542V71.772H82.1614L79.7469 73.2438C79.4934 73.3982 79.2563 73.4588 79.0358 73.4257C78.8263 73.3927 78.6444 73.2989 78.4901 73.1446C78.3357 72.9902 78.231 72.8083 78.1759 72.5989C78.1318 72.3784 78.1538 72.1634 78.242 71.9539C78.3302 71.7334 78.4956 71.546 78.7381 71.3916L81.0369 70.0025C81.2684 69.8591 81.4999 69.7434 81.7314 69.6552C81.974 69.567 82.211 69.5229 82.4425 69.5229C82.7733 69.5229 83.0324 69.6111 83.2198 69.7875C83.4183 69.9529 83.5175 70.2119 83.5175 70.5647V79.2304H85.0224C85.3642 79.2304 85.6288 79.3186 85.8162 79.495C86.0036 79.6714 86.0973 79.9305 86.0973 80.2723C86.0973 80.614 86.0036 80.8786 85.8162 81.0661C85.6288 81.2425 85.3642 81.3307 85.0224 81.3307H79.2839ZM88.8857 81.3307C88.4778 81.3307 88.1746 81.2369 87.9761 81.0495C87.7887 80.8511 87.695 80.5644 87.695 80.1896C87.695 79.947 87.7556 79.721 87.8769 79.5115C87.9982 79.3021 88.1636 79.0871 88.373 78.8666L91.4821 75.5921C91.9451 75.096 92.2759 74.655 92.4743 74.2691C92.6838 73.8833 92.7886 73.4974 92.7886 73.1115C92.7886 72.6264 92.6287 72.2571 92.309 72.0035C92.0003 71.7499 91.5482 71.6231 90.9529 71.6231C90.6332 71.6231 90.3024 71.6728 89.9606 71.772C89.6299 71.8602 89.2826 72.009 88.9188 72.2185C88.6762 72.3508 88.4502 72.4004 88.2407 72.3673C88.0423 72.3232 87.8714 72.2295 87.7281 72.0862C87.5848 71.9318 87.491 71.7499 87.4469 71.5405C87.4028 71.331 87.4249 71.1215 87.5131 70.912C87.6013 70.7026 87.7667 70.5262 88.0092 70.3828C88.4943 70.0852 89.0235 69.8647 89.5968 69.7213C90.1701 69.567 90.7379 69.4898 91.3002 69.4898C92.1712 69.4898 92.9043 69.6221 93.4997 69.8867C94.095 70.1403 94.547 70.5151 94.8557 71.0113C95.1644 71.5074 95.3188 72.1138 95.3188 72.8304C95.3188 73.2934 95.2471 73.7455 95.1038 74.1865C94.9605 74.6275 94.7345 75.074 94.4258 75.526C94.1281 75.967 93.7312 76.4411 93.2351 76.9482L90.341 79.8919V79.2304H94.8227C95.1755 79.2304 95.4401 79.3186 95.6165 79.495C95.8039 79.6714 95.8976 79.9305 95.8976 80.2723C95.8976 80.614 95.8039 80.8786 95.6165 81.0661C95.4401 81.2425 95.1755 81.3307 94.8227 81.3307H88.8857Z" fill="white"/>
</g>
</g>
<defs>
<filter id="filter0_d_2777_5716" x="0.671496" y="0.749189" width="424.462" height="233.81" filterUnits="userSpaceOnUse" color-interpolation-filters="sRGB">
<feFlood flood-opacity="0" result="BackgroundImageFix"/>
<feColorMatrix in="SourceAlpha" type="matrix" values="0 0 0 0 0 0 0 0 0 0 0 0 0 0 0 0 0 0 127 0" result="hardAlpha"/>
<feMorphology radius="4.29975" operator="dilate" in="SourceAlpha" result="effect1_dropShadow_2777_5716"/>
<feOffset dy="12.1275"/>
<feGaussianBlur stdDeviation="33.6814"/>
<feComposite in2="hardAlpha" operator="out"/>
<feColorMatrix type="matrix" values="0 0 0 0 0.133333 0 0 0 0 0.133333 0 0 0 0 0.133333 0 0 0 0.09 0"/>
<feBlend mode="normal" in2="BackgroundImageFix" result="effect1_dropShadow_2777_5716"/>
<feBlend mode="normal" in="SourceGraphic" in2="effect1_dropShadow_2777_5716" result="shape"/>
</filter>
<clipPath id="clip0_2777_5716">
<rect x="72.334" y="60.2842" width="281.137" height="90.485" rx="3.3075" fill="white"/>
</clipPath>
</defs>
</svg>
