<svg width="66" height="65" viewBox="0 0 66 65" fill="none" xmlns="http://www.w3.org/2000/svg">
<rect width="66" height="65" rx="5" fill="#FF9E15"/>
<path d="M53.3 51.8H50.35V45.05C50.3477 43.2604 49.5699 41.5448 48.1873 40.2794C46.8048 39.014 44.9303 38.3021 42.975 38.3V35.6C45.7124 35.6029 48.3368 36.5994 50.2724 38.371C52.2081 40.1426 53.2969 42.5446 53.3 45.05V51.8ZM41.5 51.8H38.55V45.05C38.5477 43.2604 37.7699 41.5448 36.3873 40.2794C35.0048 39.014 33.1303 38.3021 31.175 38.3H22.325C20.3697 38.3021 18.4952 39.014 17.1127 40.2794C15.7301 41.5448 14.9523 43.2604 14.95 45.05V51.8H12V45.05C12.0031 42.5446 13.0919 40.1426 15.0276 38.371C16.9632 36.5994 19.5876 35.6029 22.325 35.6H31.175C33.9124 35.6029 36.5368 36.5994 38.4724 38.371C40.4081 40.1426 41.4969 42.5446 41.5 45.05V51.8ZM38.55 14V16.7C40.506 16.7 42.3818 17.4112 43.7649 18.677C45.148 19.9429 45.925 21.6598 45.925 23.45C45.925 25.2402 45.148 26.9571 43.7649 28.223C42.3818 29.4888 40.506 30.2 38.55 30.2V32.9C41.2884 32.9 43.9146 31.9044 45.8509 30.1322C47.7872 28.3599 48.875 25.9563 48.875 23.45C48.875 20.9437 47.7872 18.5401 45.8509 16.7678C43.9146 14.9956 41.2884 14 38.55 14ZM26.75 16.7C28.2086 16.7 29.6345 17.0959 30.8473 17.8376C32.0601 18.5793 33.0054 19.6335 33.5636 20.8669C34.1218 22.1003 34.2679 23.4575 33.9833 24.7669C33.6987 26.0762 32.9963 27.279 31.9649 28.223C30.9335 29.167 29.6194 29.8099 28.1888 30.0703C26.7582 30.3308 25.2753 30.1971 23.9277 29.6862C22.5801 29.1753 21.4283 28.3101 20.6179 27.2001C19.8075 26.0901 19.375 24.785 19.375 23.45C19.375 21.6598 20.152 19.9429 21.5351 18.677C22.9182 17.4112 24.794 16.7 26.75 16.7ZM26.75 14C24.7079 14 22.7117 14.5542 21.0137 15.5926C19.3158 16.631 17.9924 18.1069 17.2109 19.8336C16.4295 21.5604 16.225 23.4605 16.6234 25.2936C17.0218 27.1267 18.0051 28.8106 19.4491 30.1322C20.8931 31.4538 22.7328 32.3538 24.7357 32.7184C26.7385 33.0831 28.8146 32.8959 30.7012 32.1807C32.5879 31.4654 34.2004 30.2542 35.3349 28.7001C36.4694 27.1461 37.075 25.319 37.075 23.45C37.075 20.9437 35.9872 18.5401 34.0509 16.7678C32.1146 14.9956 29.4884 14 26.75 14Z" fill="white"/>
</svg>
