<svg width="18" height="19" viewBox="0 0 18 19" fill="none" xmlns="http://www.w3.org/2000/svg">
<path d="M12.75 0.96875H5.25C4.09006 0.970053 2.97798 1.45445 2.15778 2.31567C1.33758 3.17688 0.876241 4.34456 0.875 5.5625V13.4375C0.876241 14.6554 1.33758 15.8231 2.15778 16.6843C2.97798 17.5455 4.09006 18.0299 5.25 18.0312H12.75C13.9099 18.0299 15.022 17.5455 15.8422 16.6843C16.6624 15.8231 17.1238 14.6554 17.125 13.4375V5.5625C17.1238 4.34456 16.6624 3.17688 15.8422 2.31567C15.022 1.45445 13.9099 0.970053 12.75 0.96875ZM9 13.4375C8.25832 13.4375 7.5333 13.2066 6.91661 12.7739C6.29993 12.3413 5.81928 11.7263 5.53545 11.0068C5.25162 10.2873 5.17736 9.49563 5.32206 8.73183C5.46675 7.96803 5.8239 7.26644 6.34835 6.71577C6.8728 6.1651 7.54098 5.79009 8.26841 5.63816C8.99584 5.48623 9.74984 5.5642 10.4351 5.86222C11.1203 6.16024 11.706 6.66492 12.118 7.31244C12.5301 7.95996 12.75 8.72124 12.75 9.5C12.749 10.544 12.3535 11.5448 11.6505 12.283C10.9475 13.0212 9.99424 13.4364 9 13.4375ZM13.6875 5.5625C13.5021 5.5625 13.3208 5.50477 13.1667 5.3966C13.0125 5.28844 12.8923 5.1347 12.8214 4.95483C12.7504 4.77496 12.7318 4.57703 12.768 4.38608C12.8042 4.19513 12.8935 4.01973 13.0246 3.88207C13.1557 3.7444 13.3227 3.65065 13.5046 3.61266C13.6865 3.57468 13.875 3.59418 14.0463 3.66868C14.2176 3.74319 14.364 3.86936 14.467 4.03124C14.57 4.19312 14.625 4.38343 14.625 4.57812C14.625 4.8392 14.5262 5.08958 14.3504 5.27418C14.1746 5.45879 13.9361 5.5625 13.6875 5.5625ZM11.5 9.5C11.5 10.0192 11.3534 10.5267 11.0787 10.9584C10.804 11.3901 10.4135 11.7265 9.95671 11.9252C9.49989 12.1239 8.99723 12.1758 8.51227 12.0746C8.02732 11.9733 7.58186 11.7233 7.23223 11.3562C6.8826 10.989 6.6445 10.5213 6.54804 10.0121C6.45157 9.50291 6.50108 8.97511 6.6903 8.49546C6.87952 8.0158 7.19995 7.60583 7.61107 7.31739C8.0222 7.02895 8.50555 6.875 9 6.875C9.66304 6.875 10.2989 7.15156 10.7678 7.64384C11.2366 8.13613 11.5 8.80381 11.5 9.5Z" fill="#033E96"/>
</svg>
