<svg width="14" height="14" viewBox="0 0 14 14" fill="none" xmlns="http://www.w3.org/2000/svg">
<path d="M6.58056 1.18932C6.70628 0.802372 7.25372 0.802372 7.37944 1.18932L8.67733 5.18379C8.73355 5.35684 8.89481 5.474 9.07677 5.474H13.2768C13.6837 5.474 13.8528 5.99464 13.5237 6.23379L10.1258 8.70251C9.97857 8.80946 9.91697 8.99904 9.9732 9.17208L11.2711 13.1666C11.3968 13.5535 10.9539 13.8753 10.6248 13.6361L7.22687 11.1674C7.07966 11.0605 6.88033 11.0605 6.73313 11.1674L3.33523 13.6361C3.00607 13.8753 2.56319 13.5535 2.68892 13.1666L3.9868 9.17208C4.04303 8.99904 3.98143 8.80946 3.83423 8.70251L0.436327 6.23379C0.107167 5.99464 0.276332 5.474 0.683196 5.474H4.88323C5.06519 5.474 5.22645 5.35684 5.28267 5.18379L6.58056 1.18932Z" fill="#FFB300"/>
</svg>
